HIERARCHY
ROOT Hips
{
	OFFSET 0.000000 71.427986 0.000000
	CHANNELS 6 Xposition Yposition Zposition Xrotation Yrotation Zrotation
	JOINT Pelvis
	{
		OFFSET 0.000000 0.000000 0.000000
		CHANNELS 3 Xrotation Yrotation Zrotation
		JOINT LeftUpLeg
		{
			OFFSET 6.797100 -2.508499 -1.318700
			CHANNELS 3 Xrotation Yrotation Zrotation
			JOINT LeftLeg
			{
				OFFSET 0.069008 -29.241863 0.690200
				CHANNELS 3 Xrotation Yrotation Zrotation
				JOINT LeftFoot
				{
					OFFSET -0.069008 -29.568123 -0.266800
					CHANNELS 3 Xrotation Yrotation Zrotation
					JOINT LeftToeBase
					{
						OFFSET 3.145500 -8.631000 16.059900
						CHANNELS 3 Xrotation Yrotation Zrotation
						End Site
						{
							OFFSET 0.000000 18.501587 0.000000
						}
					}
				}
			}
			JOINT Left_ShortSleeve
			{
				OFFSET 0.265923 -10.480953 1.153800
				CHANNELS 3 Xrotation Yrotation Zrotation
				End Site
				{
					OFFSET 1.725763 19.823879 0.000000
				}
			}
		}
		JOINT RightUpLeg
		{
			OFFSET -6.797100 -2.508499 -1.318700
			CHANNELS 3 Xrotation Yrotation Zrotation
			JOINT RightLeg
			{
				OFFSET -0.082453 -29.241932 0.688000
				CHANNELS 3 Xrotation Yrotation Zrotation
				JOINT RightFoot
				{
					OFFSET 0.082453 -29.568058 -0.264600
					CHANNELS 3 Xrotation Yrotation Zrotation
					JOINT RightToeBase
					{
						OFFSET -3.115300 -8.682800 16.113400
						CHANNELS 3 Xrotation Yrotation Zrotation
						End Site
						{
							OFFSET 0.000000 18.567114 0.000000
						}
					}
				}
			}
			JOINT Right_ShortSleeve
			{
				OFFSET -0.265923 -10.480953 1.153800
				CHANNELS 3 Xrotation Yrotation Zrotation
				End Site
				{
					OFFSET -1.725766 19.823910 0.000000
				}
			}
		}
	}
	JOINT Spine
	{
		OFFSET 0.000000 13.368103 0.470500
		CHANNELS 3 Xrotation Yrotation Zrotation
		JOINT Spine1
		{
			OFFSET 0.147000 13.837402 0.538800
			CHANNELS 3 Xrotation Yrotation Zrotation
			JOINT Spine2
			{
				OFFSET 0.168000 16.242897 -1.435500
				CHANNELS 3 Xrotation Yrotation Zrotation
				JOINT Neck
				{
					OFFSET 0.217200 18.631500 -1.679100
					CHANNELS 3 Xrotation Yrotation Zrotation
					JOINT Head
					{
						OFFSET 0.000000 6.599396 1.385900
						CHANNELS 3 Xrotation Yrotation Zrotation
						JOINT Hat
						{
							OFFSET -0.532200 27.220596 -10.096100
							CHANNELS 3 Xrotation Yrotation Zrotation
							End Site
							{
								OFFSET 0.000000 22.029861 0.000000
							}
						}
						JOINT HairD
						{
							OFFSET -10.777400 17.437393 -1.325900
							CHANNELS 3 Xrotation Yrotation Zrotation
							JOINT HairD1
							{
								OFFSET -3.290299 -11.051193 1.062200
								CHANNELS 3 Xrotation Yrotation Zrotation
								End Site
								{
									OFFSET 0.000000 11.579437 0.000000
								}
							}
						}
						JOINT HairB
						{
							OFFSET -10.777400 17.437393 1.467900
							CHANNELS 3 Xrotation Yrotation Zrotation
							JOINT HairB1
							{
								OFFSET -1.561200 -12.956299 3.590200
								CHANNELS 3 Xrotation Yrotation Zrotation
								End Site
								{
									OFFSET 0.000000 13.534866 0.000000
								}
							}
						}
						JOINT HairA
						{
							OFFSET 9.713100 17.437393 1.467900
							CHANNELS 3 Xrotation Yrotation Zrotation
							JOINT HairA1
							{
								OFFSET 1.561200 -12.956299 3.590200
								CHANNELS 3 Xrotation Yrotation Zrotation
								End Site
								{
									OFFSET 0.000000 13.534866 0.000000
								}
							}
						}
						JOINT HairC
						{
							OFFSET 9.713100 17.437393 -1.325900
							CHANNELS 3 Xrotation Yrotation Zrotation
							JOINT HairC1
							{
								OFFSET 3.290300 -11.051193 1.062200
								CHANNELS 3 Xrotation Yrotation Zrotation
								End Site
								{
									OFFSET 0.000000 11.579437 0.000000
								}
							}
						}
					}
				}
				JOINT LeftShoulder
				{
					OFFSET 5.101800 15.108002 -2.763700
					CHANNELS 3 Xrotation Yrotation Zrotation
					JOINT LeftArm
					{
						OFFSET 9.825497 2.506317 -1.597400
						CHANNELS 3 Xrotation Yrotation Zrotation
						JOINT LeftForeArm
						{
							OFFSET 21.966244 0.000000 0.000000
							CHANNELS 3 Xrotation Yrotation Zrotation
							JOINT LeftHand
							{
								OFFSET 33.879036 0.000000 0.000000
								CHANNELS 3 Xrotation Yrotation Zrotation
								JOINT LeftHandThumb1
								{
									OFFSET 6.715286 -2.359680 3.363841
									CHANNELS 3 Xrotation Yrotation Zrotation
									JOINT LeftHandThumb2
									{
										OFFSET 2.507072 -1.447464 1.447461
										CHANNELS 3 Xrotation Yrotation Zrotation
										JOINT LeftHandThumb3
										{
											OFFSET 2.898338 -1.673355 1.673357
											CHANNELS 3 Xrotation Yrotation Zrotation
											End Site
											{
												OFFSET -0.295959 3.727692 -0.131651
											}
										}
									}
								}
								JOINT LeftHandIndex1
								{
									OFFSET 14.190811 -0.254547 3.840278
									CHANNELS 3 Xrotation Yrotation Zrotation
									JOINT LeftHandIndex2
									{
										OFFSET 3.551727 0.000000 -0.000000
										CHANNELS 3 Xrotation Yrotation Zrotation
										JOINT LeftHandIndex3
										{
											OFFSET 2.894196 0.000000 0.000000
											CHANNELS 3 Xrotation Yrotation Zrotation
											End Site
											{
												OFFSET -1.000603 2.690872 0.366626
											}
										}
									}
								}
								JOINT LeftHandMiddle1
								{
									OFFSET 13.776489 0.000000 0.000000
									CHANNELS 3 Xrotation Yrotation Zrotation
									JOINT LeftHandMiddle2
									{
										OFFSET 3.438232 0.000000 0.000000
										CHANNELS 3 Xrotation Yrotation Zrotation
										JOINT LeftHandMiddle3
										{
											OFFSET 3.691551 0.000000 0.000000
											CHANNELS 3 Xrotation Yrotation Zrotation
											End Site
											{
												OFFSET -1.082298 3.499527 0.457670
											}
										}
									}
								}
								JOINT LeftHandRing1
								{
									OFFSET 13.966164 -0.268127 -3.067488
									CHANNELS 3 Xrotation Yrotation Zrotation
									JOINT LeftHandRing2
									{
										OFFSET 3.162567 0.000000 0.000000
										CHANNELS 3 Xrotation Yrotation Zrotation
										JOINT LeftHandRing3
										{
											OFFSET 3.324348 0.000000 0.000000
											CHANNELS 3 Xrotation Yrotation Zrotation
											End Site
											{
												OFFSET -0.861900 3.184998 0.405154
											}
										}
									}
								}
								JOINT LeftHandPinky1
								{
									OFFSET 13.131393 -0.168503 -5.746925
									CHANNELS 3 Xrotation Yrotation Zrotation
									JOINT LeftHandPinky2
									{
										OFFSET 2.849182 0.000000 0.000000
										CHANNELS 3 Xrotation Yrotation Zrotation
										JOINT LeftHandPinky3
										{
											OFFSET 2.805038 0.000000 0.000000
											CHANNELS 3 Xrotation Yrotation Zrotation
											End Site
											{
												OFFSET -0.882500 2.642609 0.325652
											}
										}
									}
								}
							}
							JOINT Left_Sleeve
							{
								OFFSET 6.592125 -0.646545 0.805568
								CHANNELS 3 Xrotation Yrotation Zrotation
								End Site
								{
									OFFSET -0.000179 20.275787 -0.000000
								}
							}
						}
					}
				}
				JOINT RightShoulder
				{
					OFFSET -5.731700 15.108002 -2.763700
					CHANNELS 3 Xrotation Yrotation Zrotation
					JOINT RightArm
					{
						OFFSET -9.825497 2.506317 -1.597400
						CHANNELS 3 Xrotation Yrotation Zrotation
						JOINT RightForeArm
						{
							OFFSET -21.966242 0.000000 0.000000
							CHANNELS 3 Xrotation Yrotation Zrotation
							JOINT RightHand
							{
								OFFSET -33.879032 0.000000 0.000000
								CHANNELS 3 Xrotation Yrotation Zrotation
								JOINT RightHandThumb1
								{
									OFFSET -6.715286 -2.359680 3.363841
									CHANNELS 3 Xrotation Yrotation Zrotation
									JOINT RightHandThumb2
									{
										OFFSET -2.507072 -1.447464 1.447461
										CHANNELS 3 Xrotation Yrotation Zrotation
										JOINT RightHandThumb3
										{
											OFFSET -2.898338 -1.673355 1.673357
											CHANNELS 3 Xrotation Yrotation Zrotation
											End Site
											{
												OFFSET 0.295959 3.727692 -0.131651
											}
										}
									}
								}
								JOINT RightHandIndex1
								{
									OFFSET -14.190811 -0.254547 3.840278
									CHANNELS 3 Xrotation Yrotation Zrotation
									JOINT RightHandIndex2
									{
										OFFSET -3.551727 0.000000 -0.000000
										CHANNELS 3 Xrotation Yrotation Zrotation
										JOINT RightHandIndex3
										{
											OFFSET -2.894196 0.000000 0.000000
											CHANNELS 3 Xrotation Yrotation Zrotation
											End Site
											{
												OFFSET 1.000603 2.690872 0.366626
											}
										}
									}
								}
								JOINT RightHandMiddle1
								{
									OFFSET -13.776489 0.000000 0.000000
									CHANNELS 3 Xrotation Yrotation Zrotation
									JOINT RightHandMiddle2
									{
										OFFSET -3.438232 0.000000 0.000000
										CHANNELS 3 Xrotation Yrotation Zrotation
										JOINT RightHandMiddle3
										{
											OFFSET -3.691551 0.000000 0.000000
											CHANNELS 3 Xrotation Yrotation Zrotation
											End Site
											{
												OFFSET 1.082298 3.499527 0.457670
											}
										}
									}
								}
								JOINT RightHandRing1
								{
									OFFSET -13.966164 -0.268127 -3.067488
									CHANNELS 3 Xrotation Yrotation Zrotation
									JOINT RightHandRing2
									{
										OFFSET -3.162567 0.000000 0.000000
										CHANNELS 3 Xrotation Yrotation Zrotation
										JOINT RightHandRing3
										{
											OFFSET -3.324348 0.000000 0.000000
											CHANNELS 3 Xrotation Yrotation Zrotation
											End Site
											{
												OFFSET 0.861900 3.184998 0.405154
											}
										}
									}
								}
								JOINT RightHandPinky1
								{
									OFFSET -13.131393 -0.168503 -5.746925
									CHANNELS 3 Xrotation Yrotation Zrotation
									JOINT RightHandPinky2
									{
										OFFSET -2.849182 0.000000 0.000000
										CHANNELS 3 Xrotation Yrotation Zrotation
										JOINT RightHandPinky3
										{
											OFFSET -2.805038 0.000000 0.000000
											CHANNELS 3 Xrotation Yrotation Zrotation
											End Site
											{
												OFFSET 0.882500 2.642609 0.325652
											}
										}
									}
								}
							}
							JOINT Right_Sleeve
							{
								OFFSET -6.592125 -0.646545 0.805568
								CHANNELS 3 Xrotation Yrotation Zrotation
								End Site
								{
									OFFSET 0.000179 20.275787 -0.000000
								}
							}
						}
					}
				}
				JOINT Bind_Right_JacketString
				{
					OFFSET -3.534800 11.969597 7.200700
					CHANNELS 3 Xrotation Yrotation Zrotation
					JOINT Bind_Right_JacketString1
					{
						OFFSET -0.319900 -6.102600 2.794100
						CHANNELS 3 Xrotation Yrotation Zrotation
						End Site
						{
							OFFSET 0.000000 6.719452 0.000000
						}
					}
				}
				JOINT Bind_Left_JacketString
				{
					OFFSET 2.904800 11.969597 7.200700
					CHANNELS 3 Xrotation Yrotation Zrotation
					JOINT Bind_Left_JacketString1
					{
						OFFSET 0.364800 -5.904503 3.186800
						CHANNELS 3 Xrotation Yrotation Zrotation
						End Site
						{
							OFFSET 0.000000 6.719513 0.000000
						}
					}
				}
				JOINT HairE
				{
					OFFSET 5.915200 17.612701 -11.592200
					CHANNELS 3 Xrotation Yrotation Zrotation
					JOINT HairE1
					{
						OFFSET 0.289200 -7.171898 -1.284500
						CHANNELS 3 Xrotation Yrotation Zrotation
						End Site
						{
							OFFSET 0.000000 7.291756 0.000000
						}
					}
				}
				JOINT HairF
				{
					OFFSET -0.864800 17.612701 -11.592200
					CHANNELS 3 Xrotation Yrotation Zrotation
					JOINT HairF1
					{
						OFFSET 0.000000 -14.087097 -2.127501
						CHANNELS 3 Xrotation Yrotation Zrotation
						End Site
						{
							OFFSET 0.000000 14.246841 0.000000
						}
					}
				}
				JOINT HairG
				{
					OFFSET -8.087700 17.612701 -11.592200
					CHANNELS 3 Xrotation Yrotation Zrotation
					JOINT HairG1
					{
						OFFSET -0.293600 -6.081398 -0.910100
						CHANNELS 3 Xrotation Yrotation Zrotation
						End Site
						{
							OFFSET 0.000000 6.156120 0.000000
						}
					}
				}
			}
		}
	}
	JOINT Pouch
	{
		OFFSET 0.000000 4.394501 10.847300
		CHANNELS 3 Xrotation Yrotation Zrotation
		End Site
		{
			OFFSET 0.000000 21.880577 0.000000
		}
	}
	JOINT Bag
	{
		OFFSET -13.229000 4.813004 -0.593300
		CHANNELS 3 Xrotation Yrotation Zrotation
		End Site
		{
			OFFSET 0.000000 21.880577 0.000000
		}
	}
	JOINT OccupyGuyFacialAnim_Joint
	{
		OFFSET 1.000000 -70.206398 -1.655000
		CHANNELS 3 Xrotation Yrotation Zrotation
		End Site
		{
			OFFSET 0.000000 21.880577 0.000000
		}
	}
}
MOTION
Frames: 4
Frame Time: 0.016667
-0.035201 70.332710 0.122311 2.912484 -28.986172 1.187768 -0.000000 -0.000000 -0.000000 -14.990409 18.711964 9.351046 17.124077 13.218493 -0.902242 -4.453918 -4.009199 -5.089093 0.000000 -0.000000 -0.000000 -0.000000 -0.000001 0.000000 -5.457192 -1.939217 -9.246373 10.912238 9.735466 0.827791 -8.842915 -1.017163 7.078040 -0.000000 0.000001 -0.000000 -0.000000 0.000001 0.000001 7.835989 -0.366796 -2.679133 1.099253 -0.880580 2.383465 1.108677 -0.590427 2.446365 -3.841836 18.019052 -6.496488 -6.332744 13.021565 0.301528 0.000000 -0.000000 -0.000000 0.000000 -0.000000 -0.000000 0.000000 -0.000000 0.000000 0.000000 -0.000000 -0.000000 -0.000000 -0.000000 -0.000000 0.000000 -0.000000 -0.000000 -0.000000 -0.000000 -0.000000 0.000000 -0.000000 -0.000000 0.000000 -0.000000 -0.000000 -0.057389 -8.759449 -0.061006 -55.250814 0.329468 -41.449348 11.584318 -65.827301 13.005458 -50.191034 12.352921 4.610816 17.551626 -5.699189 -12.932310 10.850468 26.127712 8.644839 0.000001 0.000001 -0.000000 13.980912 1.201556 -55.004371 0.370808 1.161696 -65.441880 -0.000001 0.000001 -0.000000 7.504736 1.174486 -63.778517 1.807806 1.475664 -64.567923 0.000000 0.000001 -0.000003 8.574310 2.179101 -75.149006 -0.207651 1.009294 -57.855042 -0.000001 -0.000001 -0.000003 10.030079 13.637065 -84.750244 0.877103 0.062311 -64.595503 0.000000 -0.000000 -0.000001 0.000001 0.000002 0.000000 4.849303 7.760138 5.560460 -0.933455 -2.176910 61.845655 11.299291 18.943572 -3.987580 -0.459214 6.620099 5.830203 15.788384 -2.734517 -17.205808 -2.198335 -31.113564 7.361258 0.000002 -0.000001 0.000001 2.382178 -3.656540 8.488166 -2.150640 -2.471224 18.673290 -0.000000 0.000000 0.000000 -1.979711 -5.703093 13.662269 0.280396 -5.098937 26.988041 0.000001 -0.000000 0.000001 -3.257610 -8.560606 11.770077 4.036124 -4.060214 33.262973 0.000001 0.000000 -0.000002 -6.474164 -11.347984 23.260713 10.715055 -2.557676 34.822647 -0.000001 0.000001 -0.000005 -0.000001 -0.000000 -0.000004 -0.000001 -0.000002 0.000000 0.000000 -0.000000 -0.000001 -0.000001 -0.000002 0.000000 -0.000001 -0.000002 0.000000 -0.000001 -0.000002 0.000000 0.000000 -0.000000 -0.000000 -0.000001 -0.000002 0.000000 -0.000001 -0.000002 0.000000 -0.000001 -0.000002 0.000000 0.000000 -0.000000 -0.000000 -0.000000 -0.000000 -0.000000 -0.000000 -0.000000 -0.000000 -0.000000 -0.000000 -0.000000 
-0.149306 70.159836 0.283982 3.089363 -27.947573 1.306180 0.000000 0.000001 0.000000 -16.042680 18.139178 9.548824 18.898427 12.370280 -1.008996 -5.363279 -3.767082 -5.201958 0.000000 0.000000 0.000000 0.000000 -0.000001 -0.000000 -6.390696 -1.816198 -9.289724 13.394122 9.250705 0.787241 -10.443503 -1.503907 6.870167 -0.000000 0.000001 0.000000 0.000000 -0.000000 -0.000001 7.585940 -0.124335 -2.950074 1.179882 -0.587874 2.428845 1.179489 -0.331353 2.447600 -4.361380 17.503039 -6.286971 -6.658288 12.494608 0.882709 0.000000 -0.000000 -0.000000 0.000000 -0.000000 -0.000000 0.000000 -0.000000 -0.000000 0.000000 -0.000000 -0.000000 -0.000000 -0.000000 -0.000000 0.000000 -0.000000 -0.000000 -0.000000 -0.000000 -0.000000 0.000000 -0.000000 -0.000000 0.000000 -0.000000 -0.000000 -0.156521 -7.613169 -0.517558 -54.992862 2.359945 -39.858867 14.183596 -68.506524 15.203581 -50.021109 11.836317 3.695133 17.551622 -5.699189 -12.932307 10.850468 26.127714 8.644841 -0.000000 0.000001 -0.000000 13.980911 1.201555 -55.004377 0.370810 1.161696 -65.441880 0.000001 -0.000001 -0.000000 7.504736 1.174485 -63.778517 1.807808 1.475663 -64.567930 0.000001 0.000001 0.000003 8.574309 2.179102 -75.149006 -0.207652 1.009294 -57.855042 -0.000001 0.000000 -0.000002 10.030080 13.637063 -84.750244 0.877102 0.062311 -64.595503 0.000001 -0.000000 0.000001 -0.000000 0.000001 -0.000001 4.812135 8.119671 5.688570 -0.408748 -2.451834 61.988509 12.244010 18.822499 -4.559207 -0.536300 7.009255 5.751487 15.835302 -2.735891 -17.119550 -2.264926 -31.017661 7.352499 0.000001 -0.000001 0.000001 2.381963 -3.658129 8.566179 -2.150603 -2.472769 18.751241 -0.000001 0.000000 0.000000 -1.979306 -5.704406 13.740292 0.282759 -5.099364 27.066146 0.000000 -0.000001 0.000001 -3.258057 -8.562264 11.847964 4.035931 -4.062112 33.341159 -0.000000 0.000000 -0.000001 -6.485085 -11.390098 23.332710 10.716262 -2.558938 34.900911 -0.000000 0.000001 -0.000003 -0.000000 -0.000000 -0.000001 0.000000 0.000001 -0.000000 0.000000 0.000001 -0.000001 0.000000 0.000001 0.000000 0.000000 0.000001 0.000000 0.000000 0.000001 -0.000000 0.000000 0.000001 -0.000000 0.000000 0.000001 0.000000 0.000000 0.000001 0.000000 0.000000 0.000001 -0.000000 0.000000 0.000001 -0.000000 0.000000 0.000001 0.000000 0.000000 0.000001 0.000000 0.000000 0.000001 0.000000 
-0.256918 69.977234 0.459067 3.262163 -26.744576 1.379976 -0.000000 -0.000001 0.000000 -17.118146 17.563999 9.760140 20.649342 11.338780 -1.136017 -6.258185 -3.518803 -5.241957 0.000000 0.000000 -0.000000 0.000001 0.000000 -0.000000 -7.132453 -1.758953 -9.301235 15.571482 9.114095 0.776437 -11.928546 -2.460699 6.609012 -0.000000 -0.000001 0.000000 0.000000 -0.000003 -0.000001 7.263256 0.176729 -3.120452 1.305099 -0.239085 2.460832 1.292174 -0.018796 2.426596 -4.964535 16.791069 -6.023531 -6.880098 11.820293 1.376510 -0.000000 -0.000000 0.000000 -0.000000 -0.000000 0.000000 -0.000000 -0.000000 0.000000 -0.000000 -0.000000 0.000000 -0.000000 -0.000000 0.000000 -0.000000 -0.000000 0.000000 -0.000000 -0.000000 0.000000 -0.000000 -0.000000 0.000000 -0.000000 -0.000000 0.000000 -0.257675 -6.543723 -1.038122 -54.949606 4.638165 -38.362666 19.162488 -71.200808 19.813672 -49.825366 10.829549 2.949313 17.551622 -5.699184 -12.932306 10.850467 26.127714 8.644836 -0.000002 -0.000000 -0.000001 13.980910 1.201563 -55.004377 0.370807 1.161696 -65.441880 -0.000000 0.000000 -0.000002 7.504734 1.174491 -63.778517 1.807810 1.475662 -64.567923 0.000002 -0.000001 -0.000001 8.574310 2.179104 -75.148999 -0.207651 1.009291 -57.855042 -0.000001 -0.000003 -0.000004 10.030076 13.637067 -84.750244 0.877103 0.062312 -64.595517 0.000001 -0.000001 0.000001 -0.000003 -0.000001 0.000002 4.776426 8.473872 5.863059 0.334845 -2.740969 62.151218 13.457526 18.694467 -5.471709 -0.738289 7.226689 5.672254 15.960337 -2.740611 -16.876646 -2.449912 -30.750768 7.328897 0.000001 0.000001 0.000003 2.381015 -3.658320 8.783370 -2.150652 -2.472918 18.968444 -0.000000 0.000000 0.000000 -1.978071 -5.708030 13.957450 0.282845 -5.100868 27.283367 0.000000 -0.000000 0.000001 -3.259165 -8.562335 12.065000 4.035363 -4.062298 33.558331 -0.000000 -0.000000 -0.000000 -6.514887 -11.507479 23.533034 10.719497 -2.558903 35.118196 -0.000001 0.000000 -0.000001 -0.000000 -0.000000 -0.000001 0.000000 0.000000 -0.000000 0.000000 0.000000 -0.000000 0.000000 0.000000 -0.000000 0.000000 0.000000 -0.000000 0.000000 0.000000 -0.000000 0.000000 0.000000 -0.000000 0.000000 0.000000 -0.000000 0.000000 0.000000 -0.000000 0.000000 0.000000 -0.000000 0.000000 0.000000 -0.000000 -0.000000 -0.000001 0.000000 -0.000000 -0.000001 0.000000 -0.000000 -0.000001 0.000000 
-0.355526 69.796196 0.648504 3.425711 -25.381014 1.411562 0.000000 0.000002 -0.000000 -18.172150 17.042306 9.915589 22.306011 11.631023 -1.165708 -7.109626 -4.776897 -5.431602 -0.000000 0.000000 -0.000000 -0.000001 0.000001 -0.000000 -7.666212 -1.772655 -9.263486 17.434343 8.671340 0.743989 -13.282158 -3.252092 6.444141 0.000000 -0.000002 0.000000 -0.000000 0.000002 -0.000000 6.887786 0.522595 -3.201329 1.460485 0.152819 2.478274 1.433642 0.334548 2.384511 -5.614540 15.907845 -5.715406 -7.022092 11.021186 1.798167 -0.000000 -0.000000 -0.000000 -0.000000 -0.000000 -0.000000 -0.000000 -0.000000 -0.000000 -0.000000 -0.000000 -0.000000 -0.000000 -0.000000 -0.000000 -0.000000 -0.000000 -0.000000 -0.000000 -0.000000 -0.000000 -0.000000 -0.000000 -0.000000 -0.000000 -0.000000 -0.000000 -0.348973 -5.538385 -1.589103 -55.141586 7.041869 -36.915472 26.186503 -73.767081 26.509783 -49.617875 9.602809 2.265843 17.551622 -5.699187 -12.932305 10.850463 26.127710 8.644837 0.000003 0.000001 -0.000000 13.980911 1.201560 -55.004374 0.370816 1.161693 -65.441880 0.000002 -0.000001 -0.000000 7.504734 1.174487 -63.778510 1.807805 1.475664 -64.567930 0.000000 0.000000 0.000001 8.574309 2.179101 -75.148999 -0.207651 1.009293 -57.855042 -0.000002 -0.000001 -0.000002 10.030076 13.637065 -84.750251 0.877101 0.062313 -64.595510 0.000000 0.000001 -0.000002 0.000001 -0.000001 -0.000000 4.736006 8.868331 6.075507 1.246721 -3.107691 62.321262 14.852974 18.537195 -6.632890 -1.106521 7.329464 5.646195 16.151251 -2.746706 -16.506607 -2.730663 -30.343829 7.294871 0.000001 0.000002 0.000003 2.379601 -3.658628 9.114413 -2.150759 -2.473101 19.299598 -0.000000 -0.000000 -0.000002 -1.976190 -5.708187 14.288672 0.283039 -5.103081 27.614467 0.000000 -0.000001 0.000001 -3.260866 -8.562461 12.395853 4.034541 -4.062548 33.889363 -0.000000 0.000000 -0.000002 -6.558737 -11.686805 23.838340 10.719591 -2.559027 35.449293 -0.000001 0.000000 -0.000005 0.000000 -0.000000 -0.000001 0.000001 -0.000000 0.000000 0.000001 -0.000001 0.000000 0.000001 -0.000000 0.000000 0.000001 -0.000000 0.000000 0.000001 -0.000000 0.000000 0.000001 -0.000001 -0.000000 0.000001 -0.000000 0.000000 0.000001 -0.000000 0.000000 0.000001 -0.000000 0.000000 0.000001 -0.000001 -0.000000 0.000000 0.000002 -0.000000 0.000000 0.000002 -0.000000 0.000000 0.000002 -0.000000 
